<svg height="512" viewBox="0 0 64 64" width="512" xmlns="http://www.w3.org/2000/svg"><g id="Filled_outline" data-name="Filled outline"><path d="m1.893 47.672h21.213v5.657h-21.213z" fill="#ad6327" transform="matrix(.707 -.707 .707 .707 -32.048 23.63)"/><path d="m18 41 39-37 2 2-37 39z" fill="#4da6ea"/><path d="m17 50 8-8a5.657 5.657 0 0 1 0 8 5.657 5.657 0 0 1 -8 0z" fill="#f9bb4b"/><path d="m30.964 43.672h7.071v5.657h-7.071z" fill="#233b8e" transform="matrix(.707 -.707 .707 .707 -22.776 38.015)"/><path d="m13.879 37.879h4.243v4.243h-4.243z" fill="#f9bb4b" transform="matrix(.707 -.707 .707 .707 -23.598 23.029)"/><path d="m13 40-6-6a2.12 2.12 0 0 1 0-3 2.12 2.12 0 0 1 3 0l6 6z" fill="#ad6327"/><ellipse cx="59" cy="43" fill="#f9bb4b" rx="2" ry="3"/><path d="m62 43a4.026 4.026 0 0 0 -2-3.763v-33.237a1 1 0 0 0 -.293-.707l-2-2a1 1 0 0 0 -1.4-.019l-37.263 35.356-8.337-8.337a3.193 3.193 0 0 0 -4.414 0 3.12 3.12 0 0 0 0 4.413l8.293 8.294-12.293 12.293a1 1 0 0 0 0 1.414l4 4a1 1 0 0 0 1.414 0l9.352-9.352a6.629 6.629 0 0 0 7.941-.041 4.959 4.959 0 0 0 6.539-.436l.461-.464 1.293 1.293a1 1 0 0 0 1.414 0l5-5a1 1 0 0 0 0-1.414l-4-4a1 1 0 0 0 -1.414 0l-5 5a1 1 0 0 0 0 1.414l1.293 1.293-.464.464a3 3 0 0 1 -3.719.413 6.67 6.67 0 0 0 .6-6.734h.033c2.044 0 5.035-.395 6.871-2.427 1.42-1.571 1.88-3.783 1.374-6.587 1.793.078 4.8-.145 6.666-2.18 1.463-1.595 1.905-3.922 1.318-6.928 1.856-.057 5.18-.5 7.237-2.793a7.445 7.445 0 0 0 1.706-5.793 5.809 5.809 0 0 0 4.257-.64 5.561 5.561 0 0 0 1.535-1.421v24.863a4.026 4.026 0 0 0 -2 3.763 4.026 4.026 0 0 0 2 3.763v2.237a1 1 0 0 0 1 1 1 1 0 1 1 -1 1h-2a3 3 0 1 0 4-2.829v-1.408a4.026 4.026 0 0 0 2-3.763zm-27 .414 2.586 2.586-3.586 3.586-2.586-2.586zm-27.293-10.121a1.121 1.121 0 0 1 1.586-1.586l5.293 5.293-1.586 1.586zm6.707 6.707 1.586-1.586 1.586 1.586-1.586 1.586zm-7.414 18.586-2.586-2.586 13.586-13.586 2.586 2.586zm11.491-8.663 2.509-2.509 2.5 2.5a4.661 4.661 0 0 1 -5.009.009zm6.423-1.423-2.5-2.5 2.509-2.509a4.659 4.659 0 0 1 -.009 5.009zm7.515-9.128c-1.34 1.486-3.718 1.772-5.388 1.768l6.274-6.613c.377 2.135.085 3.766-.886 4.845zm8.05-8.778c-1.263 1.381-3.459 1.581-4.9 1.543l5.821-6.132c.3 2.038 0 3.583-.921 4.589zm8.542-9.706a7.46 7.46 0 0 1 -4.712 2.05l5.907-6.226a5.506 5.506 0 0 1 -1.195 4.176zm-27.04 22.679-2.548-2.548 37.548-35.619.623.623zm33.446-29.479a3.947 3.947 0 0 1 -3.037.333l5.467-5.763c-.309 2.756-1.13 4.619-2.43 5.43zm3.573 30.912c-.408 0-1-.779-1-2s.592-2 1-2 1 .779 1 2-.592 2-1 2z"/></g></svg>